<svg width="36" height="36" viewBox="0 0 36 36" fill="none" xmlns="http://www.w3.org/2000/svg">
<path d="M18 30.6003L17.424 29.9523C17.064 29.5923 8.64001 19.6563 8.64001 13.6803C8.64001 8.49631 12.816 4.32031 18 4.32031C23.184 4.32031 27.36 8.49631 27.36 13.6803C27.36 19.6563 18.936 29.5923 18.576 30.0243L18 30.6003ZM18 5.76031C13.608 5.76031 10.08 9.28831 10.08 13.6803C10.08 18.2883 16.128 26.0643 18 28.3683C19.872 26.0643 25.92 18.2883 25.92 13.6803C25.92 9.28831 22.392 5.76031 18 5.76031Z" fill="#00BCD4"/>
<path d="M18 17.2801C15.984 17.2801 14.4 15.6961 14.4 13.6801C14.4 11.6641 15.984 10.0801 18 10.0801C20.016 10.0801 21.6 11.6641 21.6 13.6801C21.6 15.6961 20.016 17.2801 18 17.2801ZM18 11.5201C16.776 11.5201 15.84 12.4561 15.84 13.6801C15.84 14.9041 16.776 15.8401 18 15.8401C19.224 15.8401 20.16 14.9041 20.16 13.6801C20.16 12.4561 19.224 11.5201 18 11.5201Z" fill="#00BCD4"/>
</svg>
