<svg width="25" height="25" viewBox="0 0 25 25" fill="none" xmlns="http://www.w3.org/2000/svg">
<path fill-rule="evenodd" clip-rule="evenodd" d="M11.25 4.37524C9.42664 4.37524 7.67795 5.09957 6.38864 6.38888C5.09933 7.67819 4.375 9.42688 4.375 11.2502C4.375 13.0736 5.09933 14.8223 6.38864 16.1116C7.67795 17.4009 9.42664 18.1252 11.25 18.1252C13.0734 18.1252 14.822 17.4009 16.1114 16.1116C17.4007 14.8223 18.125 13.0736 18.125 11.2502C18.125 9.42688 17.4007 7.67819 16.1114 6.38888C14.822 5.09957 13.0734 4.37524 11.25 4.37524ZM2.5 11.2502C2.50012 9.85108 2.83577 8.47234 3.47879 7.22969C4.12181 5.98704 5.05345 4.91671 6.19557 4.10849C7.33768 3.30026 8.65697 2.77771 10.0427 2.58466C11.4285 2.39162 12.8404 2.53371 14.1599 2.99902C15.4794 3.46433 16.6681 4.23928 17.6263 5.25888C18.5845 6.27848 19.2842 7.51299 19.6667 8.85885C20.0492 10.2047 20.1034 11.6227 19.8247 12.9938C19.546 14.3649 18.9426 15.6492 18.065 16.739L22.225 20.9002C22.3171 20.9861 22.391 21.0896 22.4422 21.2046C22.4935 21.3196 22.521 21.4437 22.5232 21.5696C22.5255 21.6955 22.5023 21.8205 22.4552 21.9372C22.408 22.054 22.3378 22.16 22.2488 22.249C22.1598 22.3381 22.0537 22.4082 21.937 22.4554C21.8203 22.5025 21.6952 22.5257 21.5693 22.5235C21.4435 22.5213 21.3193 22.4937 21.2043 22.4425C21.0893 22.3912 20.9858 22.3173 20.9 22.2252L16.7387 18.0652C15.4532 19.1007 13.9009 19.7514 12.2613 19.9422C10.6216 20.133 8.9614 19.856 7.47244 19.1434C5.98347 18.4307 4.72646 17.3114 3.84659 15.9147C2.96672 14.5181 2.49989 12.901 2.5 11.2502Z" fill="white"/>
</svg>
