<svg width="48" height="48" viewBox="0 0 48 48" fill="none" xmlns="http://www.w3.org/2000/svg">
<path d="M38 21L43 30L38 31V37H35L29 36L28 43H13L11 32.619C7.92 29.703 6 25.576 6 21C6 12.163 13.163 5 22 5C30.837 5 38 12.163 38 21Z" stroke="#00BCD4" stroke-width="4" stroke-linecap="round" stroke-linejoin="round"/>
<path d="M17 19C17 18.0111 17.2932 17.0444 17.8427 16.2222C18.3921 15.3999 19.173 14.759 20.0866 14.3806C21.0002 14.0022 22.0055 13.9031 22.9755 14.0961C23.9454 14.289 24.8363 14.7652 25.5355 15.4645C26.2348 16.1637 26.711 17.0546 26.9039 18.0246C27.0969 18.9945 26.9978 19.9998 26.6194 20.9134C26.241 21.8271 25.6001 22.6079 24.7779 23.1574C23.9556 23.7068 22.9889 24 22 24V27M22 33V34" stroke="#00BCD4" stroke-width="4" stroke-linecap="round" stroke-linejoin="round"/>
</svg>
