<svg width="50" height="50" viewBox="0 0 50 50" fill="none" xmlns="http://www.w3.org/2000/svg">
<path d="M42.4583 17.8538L39.8958 21.708C41.1316 24.1728 41.7366 26.9056 41.6566 29.6616C41.5766 32.4176 40.8141 35.1108 39.4375 37.4997H10.5625C8.77322 34.3957 8.03182 30.7978 8.44816 27.2394C8.86451 23.681 10.4164 20.3514 12.8739 17.7443C15.3313 15.1372 18.5634 13.3914 22.0911 12.7657C25.6187 12.14 29.2541 12.6677 32.4583 14.2705L36.3125 11.708C32.3885 9.1918 27.734 8.06428 23.0935 8.5058C18.453 8.94732 14.0946 10.9324 10.7156 14.1435C7.3365 17.3545 5.13196 21.6061 4.45457 26.218C3.77719 30.83 4.6661 35.5359 6.97912 39.583C7.34268 40.2128 7.86472 40.7364 8.49335 41.1019C9.12198 41.4674 9.83531 41.662 10.5625 41.6663H39.4166C40.1508 41.6693 40.8728 41.4781 41.5093 41.1123C42.1459 40.7464 42.6745 40.2189 43.0416 39.583C44.9612 36.2579 45.9245 32.4669 45.8252 28.6288C45.7259 24.7906 44.568 21.0545 42.4791 17.833L42.4583 17.8538Z" fill="#00BCD4"/>
<path d="M22.0626 32.1045C22.4496 32.4919 22.9091 32.7992 23.4149 33.0089C23.9208 33.2186 24.463 33.3265 25.0105 33.3265C25.5581 33.3265 26.1003 33.2186 26.6061 33.0089C27.1119 32.7992 27.5715 32.4919 27.9584 32.1045L39.7501 14.417L22.0626 26.2087C21.6752 26.5956 21.3679 27.0552 21.1582 27.561C20.9485 28.0668 20.8406 28.609 20.8406 29.1566C20.8406 29.7041 20.9485 30.2463 21.1582 30.7522C21.3679 31.258 21.6752 31.7175 22.0626 32.1045Z" fill="#00BCD4"/>
</svg>
