<svg width="50" height="50" viewBox="0 0 50 50" fill="none" xmlns="http://www.w3.org/2000/svg">
<path d="M27.0834 6.24967C35.1667 6.24967 41.6667 12.7913 41.6667 20.833C41.6667 26.6663 38.2709 31.6455 33.3334 33.9788V43.7497H18.75V37.4997H16.6667C14.3542 37.4997 12.5 35.6455 12.5 33.333V27.083H9.37503C8.50003 27.083 8.00003 26.0413 8.50003 25.3955L12.5 20.1247C12.6836 16.3815 14.3005 12.8526 17.0156 10.2694C19.7307 7.68614 23.3357 6.24678 27.0834 6.24967ZM27.0834 2.08301C17.5209 2.08301 9.6042 9.20801 8.45837 18.5413L5.20837 22.9163H5.14587L5.1042 22.9788C3.95837 24.5622 3.81253 26.6455 4.70837 28.3747C5.45837 29.8122 6.7917 30.8122 8.33337 31.1247V33.333C8.33337 37.1872 11 40.458 14.5834 41.3955V47.9163H37.5V36.458C42.7084 32.9788 45.8334 27.208 45.8334 20.833C45.8334 10.4788 37.4167 2.08301 27.0834 2.08301ZM36.1042 19.3747L32.0209 20.4372L35.0209 23.4788C35.75 24.1872 35.75 25.3955 35.0209 26.1247C34.2917 26.8538 33.0834 26.8538 32.375 26.1247L29.3542 23.1247L28.2709 27.208C28.0209 28.2288 27 28.7913 26.0417 28.5413C25.7991 28.4806 25.571 28.3724 25.3704 28.2231C25.1698 28.0737 25.0007 27.8862 24.8729 27.6713C24.7451 27.4563 24.6611 27.2182 24.6257 26.9707C24.5903 26.7231 24.6042 26.471 24.6667 26.2288L25.7709 22.1455L21.6875 23.2497C21.4454 23.3121 21.1933 23.3261 20.9457 23.2907C20.6982 23.2553 20.4601 23.1713 20.2451 23.0435C20.0302 22.9157 19.8426 22.7466 19.6933 22.546C19.544 22.3454 19.4358 22.1172 19.375 21.8747C19.125 20.9372 19.7084 19.8955 20.7084 19.6455L24.7917 18.5622L21.7917 15.5413C21.4783 15.1834 21.3127 14.7196 21.3284 14.2441C21.3442 13.7686 21.5401 13.3168 21.8766 12.9804C22.213 12.6439 22.6648 12.448 23.1403 12.4322C23.6158 12.4165 24.0796 12.5821 24.4375 12.8955L27.4792 15.8955L28.5417 11.8122C28.7917 10.7913 29.8334 10.208 30.8125 10.4788C31.8334 10.7497 32.4167 11.7705 32.1459 12.7705L31.0417 16.8747L35.1459 15.7705C36.1459 15.4997 37.1667 16.083 37.4375 17.1038C37.7084 18.083 37.125 19.1247 36.1042 19.3747Z" fill="#00BCD4"/>
</svg>
