<svg width="50" height="50" viewBox="0 0 50 50" fill="none" xmlns="http://www.w3.org/2000/svg">
<g clip-path="url(#clip0_8_55)">
<path fill-rule="evenodd" clip-rule="evenodd" d="M25 18.75C28.6521 18.75 31.9604 20.0417 34.475 21.8729C36.2521 23.1667 37.7438 24.8146 38.6479 26.5937L38.8771 27.0833H43.75C44.0822 27.0836 44.4095 27.1632 44.7046 27.3156C44.9998 27.4681 45.2542 27.6889 45.4466 27.9596C45.6391 28.2304 45.764 28.5432 45.811 28.8721C45.858 29.2009 45.8256 29.5362 45.7167 29.85L45.6125 30.1L39.3625 42.6C39.2089 42.9062 38.9822 43.1699 38.7024 43.3676C38.4225 43.5653 38.0983 43.6909 37.7583 43.7333L37.5 43.75H12.5C12.1571 43.75 11.8195 43.6655 11.5171 43.5037C11.2147 43.342 10.957 43.1082 10.7667 42.8229L10.6375 42.5979L4.3875 30.0979C4.23883 29.8007 4.1634 29.4723 4.16752 29.14C4.17163 28.8078 4.25517 28.4813 4.41115 28.1879C4.56713 27.8945 4.79103 27.6426 5.06417 27.4534C5.3373 27.2641 5.65174 27.143 5.98125 27.1L6.25 27.0833H11.1208C11.9875 25.1167 13.5854 23.2854 15.525 21.8729C18.0396 20.0417 21.3479 18.75 25 18.75ZM40.3792 31.25H9.62083L13.7875 39.5833H36.2125L40.3792 31.25ZM25 22.9167C22.4731 22.9359 20.0162 23.7492 17.9771 25.2417C17.1771 25.825 16.5167 26.4542 15.9979 27.0833H34.0021C33.4222 26.3888 32.7573 25.7701 32.0229 25.2417C29.9838 23.7492 27.5269 22.9359 25 22.9167ZM25 6.25C26.6576 6.25 28.2473 6.90848 29.4194 8.08058C30.5915 9.25269 31.25 10.8424 31.25 12.5C31.25 14.1576 30.5915 15.7473 29.4194 16.9194C28.2473 18.0915 26.6576 18.75 25 18.75C23.3424 18.75 21.7527 18.0915 20.5806 16.9194C19.4085 15.7473 18.75 14.1576 18.75 12.5C18.75 10.8424 19.4085 9.25269 20.5806 8.08058C21.7527 6.90848 23.3424 6.25 25 6.25ZM25 10.4167C24.4475 10.4167 23.9176 10.6362 23.5269 11.0269C23.1362 11.4176 22.9167 11.9475 22.9167 12.5C22.9167 13.0525 23.1362 13.5824 23.5269 13.9731C23.9176 14.3638 24.4475 14.5833 25 14.5833C25.5525 14.5833 26.0824 14.3638 26.4731 13.9731C26.8638 13.5824 27.0833 13.0525 27.0833 12.5C27.0833 11.9475 26.8638 11.4176 26.4731 11.0269C26.0824 10.6362 25.5525 10.4167 25 10.4167Z" fill="#00BCD4"/>
</g>
<defs>
<clipPath id="clip0_8_55">
<rect width="50" height="50" fill="white"/>
</clipPath>
</defs>
</svg>
