<svg width="27" height="24" viewBox="0 0 27 24" fill="none" xmlns="http://www.w3.org/2000/svg">
<g clip-path="url(#clip0_8_661)">
<path d="M23.4687 10.9176L13.7867 19.9567C12.6005 21.0641 10.9918 21.6862 9.31438 21.6862C7.63695 21.6862 6.02823 21.0641 4.8421 19.9567C3.65598 18.8494 2.98962 17.3475 2.98962 15.7814C2.98962 14.2154 3.65598 12.7135 4.8421 11.6061L14.5241 2.56704C15.3149 1.8288 16.3874 1.41406 17.5057 1.41406C18.6239 1.41406 19.6964 1.8288 20.4872 2.56704C21.2779 3.30528 21.7222 4.30654 21.7222 5.35057C21.7222 6.39459 21.2779 7.39586 20.4872 8.13409L10.7946 17.1732C10.3992 17.5423 9.86299 17.7497 9.30385 17.7497C8.7447 17.7497 8.20846 17.5423 7.81309 17.1732C7.41771 16.8041 7.19559 16.3034 7.19559 15.7814C7.19559 15.2594 7.41771 14.7588 7.81309 14.3897L16.7576 6.04891" stroke="#5E5E5E" stroke-width="2.27565" stroke-linecap="round" stroke-linejoin="round"/>
</g>
<defs>
<clipPath id="clip0_8_661">
<rect width="25.285" height="23.6059" fill="white" transform="translate(0.880737 0.0488281)"/>
</clipPath>
</defs>
</svg>
