<svg width="48" height="48" viewBox="0 0 48 48" fill="none" xmlns="http://www.w3.org/2000/svg">
<g clip-path="url(#clip0_14_341)">
<path d="M14.7692 27.6922C16.8084 27.6922 18.4615 26.0391 18.4615 23.9999C18.4615 21.9607 16.8084 20.3076 14.7692 20.3076C12.73 20.3076 11.0769 21.9607 11.0769 23.9999C11.0769 26.0391 12.73 27.6922 14.7692 27.6922Z" fill="#00BCD4"/>
<path d="M23.9999 27.6922C26.0391 27.6922 27.6922 26.0391 27.6922 23.9999C27.6922 21.9607 26.0391 20.3076 23.9999 20.3076C21.9607 20.3076 20.3076 21.9607 20.3076 23.9999C20.3076 26.0391 21.9607 27.6922 23.9999 27.6922Z" fill="#00BCD4"/>
<path d="M33.2306 27.6922C35.2698 27.6922 36.9229 26.0391 36.9229 23.9999C36.9229 21.9607 35.2698 20.3076 33.2306 20.3076C31.1914 20.3076 29.5383 21.9607 29.5383 23.9999C29.5383 26.0391 31.1914 27.6922 33.2306 27.6922Z" fill="#00BCD4"/>
<path fill-rule="evenodd" clip-rule="evenodd" d="M24 44.3077C35.2154 44.3077 44.3077 35.2154 44.3077 24C44.3077 12.7846 35.2154 3.69231 24 3.69231C12.7846 3.69231 3.69231 12.7846 3.69231 24C3.69231 35.2154 12.7846 44.3077 24 44.3077ZM24 48C37.2554 48 48 37.2554 48 24C48 10.7446 37.2554 0 24 0C10.7446 0 0 10.7446 0 24C0 37.2554 10.7446 48 24 48Z" fill="#00BCD4"/>
</g>
<defs>
<clipPath id="clip0_14_341">
<rect width="48" height="48" fill="white"/>
</clipPath>
</defs>
</svg>
