<svg width="50" height="50" viewBox="0 0 50 50" fill="none" xmlns="http://www.w3.org/2000/svg">
<path d="M27.0833 2.08301L27.0853 8.46217C30.7566 8.92632 34.1692 10.5985 36.7857 13.2153C39.4021 15.8322 41.0738 19.245 41.5374 22.9163H47.9166V27.083L41.5374 27.0851C41.0734 30.7561 39.4015 34.1684 36.7851 36.7848C34.1687 39.4013 30.7563 41.0731 27.0853 41.5372L27.0833 47.9163H22.9166V41.5372C19.2452 41.0736 15.8324 39.4019 13.2156 36.7854C10.5987 34.169 8.92657 30.7564 8.46242 27.0851L2.08325 27.083V22.9163H8.46242C8.92614 19.2447 10.5981 15.8316 13.215 13.2147C15.8319 10.5979 19.2449 8.92589 22.9166 8.46217V2.08301H27.0833ZM24.9999 12.4997C21.6847 12.4997 18.5053 13.8166 16.1611 16.1608C13.8169 18.505 12.4999 21.6845 12.4999 24.9997C12.4999 28.3149 13.8169 31.4943 16.1611 33.8385C18.5053 36.1827 21.6847 37.4997 24.9999 37.4997C28.3151 37.4997 31.4945 36.1827 33.8388 33.8385C36.183 31.4943 37.4999 28.3149 37.4999 24.9997C37.4999 21.6845 36.183 18.505 33.8388 16.1608C31.4945 13.8166 28.3151 12.4997 24.9999 12.4997ZM24.9999 20.833C26.105 20.833 27.1648 21.272 27.9462 22.0534C28.7276 22.8348 29.1666 23.8946 29.1666 24.9997C29.1666 26.1047 28.7276 27.1645 27.9462 27.946C27.1648 28.7274 26.105 29.1663 24.9999 29.1663C23.8948 29.1663 22.835 28.7274 22.0536 27.946C21.2722 27.1645 20.8333 26.1047 20.8333 24.9997C20.8333 23.8946 21.2722 22.8348 22.0536 22.0534C22.835 21.272 23.8948 20.833 24.9999 20.833Z" fill="#00BCD4"/>
</svg>
